<svg id="Layer_2" data-name="Layer 2" xmlns="http://www.w3.org/2000/svg" viewBox="0 0 247.92 247.92"><defs><style>.cls-1{fill:#fff;}</style></defs><title>feeld-stonewall50-watermark</title><path class="cls-1" d="M224.92,67.82A44.81,44.81,0,0,0,180.1,23H67.82A44.81,44.81,0,0,0,23,67.82V180.1a44.82,44.82,0,0,0,89.64,0V176l2.88,2.89a44.82,44.82,0,1,0,63.39-63.39L176,112.64h4.08A44.82,44.82,0,0,0,224.92,67.82ZM112.57,65.46l35.67,35.67h-35.6V67.82C112.64,67,112.61,66.24,112.57,65.46Zm-44.75-31a33.36,33.36,0,0,1,33.31,33.32v33.31H67.82a33.32,33.32,0,1,1,0-66.63Zm33.31,113.74L65.46,112.57c.78,0,1.57.07,2.36.07h33.31Zm0,31.86a33.32,33.32,0,0,1-66.63,0V97.8l.06,0c.5.56,1,1.12,1.56,1.66l65,65Zm69.64-56.44a33.31,33.31,0,0,1-47.11,47.11l-11-11v-47.1h47.1ZM99.51,36.12c-.54-.54-1.1-1-1.66-1.56l0-.06h82.3a33.32,33.32,0,0,1,0,66.63H164.51Z"/></svg>