<svg id="Layer_2" data-name="Layer 2" xmlns="http://www.w3.org/2000/svg" viewBox="0 0 210.88 260.84"><defs><style>.cls-1,.cls-2{fill:#111913;}.cls-2{font-size:24px;font-family:LabGrotesque-Medium, Lab Grotesque;font-weight:500;}.cls-3{letter-spacing:-0.02em;}.cls-4{letter-spacing:-0.02em;}.cls-5{letter-spacing:-0.01em;}</style></defs><title>feeld-stonewall50-watermark</title><rect class="cls-1" x="128.3" y="106.32" width="30.03" height="47.97"/><polygon class="cls-1" points="140.35 65.15 140.25 65.15 139.12 71.79 141.59 71.79 140.35 65.15"/><path class="cls-1" d="M105.44,13.43a96.14,96.14,0,1,0,96.14,96.13A96.14,96.14,0,0,0,105.44,13.43ZM147,61.29h3.15v15.6h8.38v2.78H147Zm-4.46,0,3.39,18.38h-3.07L142,74.52h-3.21l-.84,5.15h-3l3.38-18.38Zm-47.46,0h8.09v2.79H98.22v4.46h3.89v2.78H98.22v5.57h5.2v2.78H95.07Zm-17.45,0h3l9,13.21h.11V61.29h2.94V79.67h-3l-9-13.21h-.1V79.67H77.62Zm-12.5,5.46c0-3.73,2-5.72,5.15-5.72s5.14,2,5.14,5.72v7.46c0,3.8-2,5.72-5.14,5.72S65.12,78,65.12,74.21ZM54.44,61.29h9.5v2.79H60.76V79.67H57.61V64.08H54.44ZM47,72l-2.6-.55c-2.94-.6-4.89-2.15-4.89-5.28s2.63-5.3,6.83-5.3,6.7,2,7,6.22H50.13c-.07-2.49-1.6-3.67-4-3.67-2.07,0-3.49.91-3.49,2.49s.87,2.26,3,2.7l2.71.58c3.07.66,5.12,2,5.12,5.36,0,3.15-2.37,5.64-7,5.64S39.16,78,38.84,73.21H42c.08,2.94,1.76,4.25,4.41,4.25,2,0,3.78-.73,3.78-2.65S49.08,72.4,47,72Zm27,94.91c-22.43,0-33.35-7.89-35.1-22.32H51.47c1.76,8.19,9.56,12,22.63,12,14.33,0,22.62-5.36,22.62-15.31,0-10.14-7.8-15.5-20.09-15.5-11.41,0-19.6,3.61-24,11.7H41.34l4.77-41.25h58.31v10.34h-49l-2.73,19.31c5-5.56,15.89-8.88,27.3-8.88,17.94,0,28.86,8.29,28.86,24.28S95.25,166.86,74,166.86Zm36.72-87.19L104.1,61.29h3.36l5.31,15.31h.07l6-15.31h3.44l6.15,15.33h.1l5.3-15.33H137l-6.62,18.38h-3.93l-5.94-14.78h-.08l-5.75,14.78Zm47.42,84.76H128.5l-11.9-11.9V108.07l11.9-11.9h29.64l11.9,11.9v44.46Zm13.79-84.76H160.41V61.29h3.15v15.6h8.37Z"/><path class="cls-1" d="M70.27,77.2c1.47,0,2-1,2-2.83V66.62c0-1.84-.52-2.86-2-2.86s-2,1.05-2,2.86v7.75C68.27,76.18,68.77,77.2,70.27,77.2Z"/><text class="cls-2" transform="translate(62.79 241.24)"><tspan class="cls-3">f</tspan><tspan x="8.02" y="0">eeld</tspan><tspan class="cls-4" x="54.17" y="0">.</tspan><tspan class="cls-5" x="59.28" y="0">c</tspan><tspan x="71.4" y="0">o</tspan></text></svg>