<svg id="Layer_2" data-name="Layer 2" xmlns="http://www.w3.org/2000/svg" viewBox="0 0 210.88 260.84"><defs><style>.cls-1,.cls-2{fill:#ff401d;}.cls-2{font-size:24px;font-family:LabGrotesque-Medium, Lab Grotesque;font-weight:500;}.cls-3{letter-spacing:-0.02em;}.cls-4{letter-spacing:-0.02em;}.cls-5{letter-spacing:-0.01em;}</style></defs><title>feeld-stonewall50-watermark</title><path class="cls-1" d="M74.82,77.2c1.47,0,2-1,2-2.83V66.62c0-1.84-.53-2.86-2-2.86s-2,1.05-2,2.86v7.75C72.83,76.18,73.33,77.2,74.82,77.2Z"/><path class="cls-1" d="M135.89,104.07c-16.09,0-26,10-26,26.23,0,16.09,10,26.23,26,26.23s26-10.14,26-26.23C161.92,114,152,104.07,135.89,104.07Z"/><polygon class="cls-1" points="145.54 65.15 145.43 65.15 144.3 71.79 146.77 71.79 145.54 65.15"/><path class="cls-1" d="M105.44,13.43a96.14,96.14,0,1,0,96.14,96.13A96.14,96.14,0,0,0,105.44,13.43Zm56.4,47.86H165v15.6h8.37v2.78H161.84Zm-9.66,0h3.15v15.6h4.78v2.78h-7.93Zm-4.46,0,3.38,18.38H148l-.89-5.15h-3.2l-.84,5.15h-3l3.39-18.38Zm-26.25,0,3.28,14.34,3.41-14.34h3.6l3.46,14.39,3.26-14.39h3.15l-4.44,18.38h-3.91l-3.36-14.26-3.36,14.26h-3.91l-4.44-18.38Zm-21.84,0h17.85v2.84h-14.7v4.62h13.65v2.83H102.78v5.25h15v2.84H99.63ZM69.68,66.75c0-3.73,2-5.72,5.14-5.72S80,63,80,66.75v7.46c0,3.8-2,5.72-5.15,5.72S69.68,78,69.68,74.21ZM59,61.29H68.5v2.78H65.32v15.6H62.17V64.07H59ZM37.63,74.08h3.15v2.75H54.87V72.76L41.09,70.85l-3.2-3.21V64.49l3.2-3.2h13.6l3.2,3.2v2.13H54.74V64.13H41v3.75L54.82,69.8,58,73v3.47l-3.2,3.2h-14l-3.2-3.2Zm52.73,78.45-11.9,11.9H50.38l-11.89-11.9v-8.19H50.18v9.95H78.66V131.86H51.55L39.65,120V96.17h47.1v10.15H51.36v15.4h27.1l11.9,11.9Zm6.85-72.86h-3l-9-13.21h-.11V79.67H82.17V61.29h3l9,13.21h.1V61.29h2.94Zm38.68,87.19c-23.11,0-38.13-14.82-38.13-36.56s15-36.56,38.13-36.56S174,108.56,174,130.3,159,166.86,135.89,166.86Z"/><text class="cls-2" transform="translate(62.79 241.24)"><tspan class="cls-3">f</tspan><tspan x="8.02" y="0">eeld</tspan><tspan class="cls-4" x="54.17" y="0">.</tspan><tspan class="cls-5" x="59.28" y="0">c</tspan><tspan x="71.4" y="0">o</tspan></text></svg>