<svg id="Layer_2" data-name="Layer 2" xmlns="http://www.w3.org/2000/svg" viewBox="0 0 210.88 260.84"><defs><style>.cls-1,.cls-2{fill:#fff;}.cls-2{font-size:24px;font-family:LabGrotesque-Medium, Lab Grotesque;font-weight:500;}.cls-3{letter-spacing:-0.02em;}.cls-4{letter-spacing:-0.02em;}.cls-5{letter-spacing:-0.01em;}</style></defs><title>feeld-stonewall50-watermark</title><polygon class="cls-1" points="137.26 64.1 137.15 64.1 133.53 70.82 140.91 70.82 137.26 64.1"/><rect class="cls-1" x="126.7" y="106.32" width="16.38" height="47.97"/><path class="cls-1" d="M76.3,77.2c1.47,0,2-1,2-2.83V66.62c0-1.84-.53-2.86-2-2.86s-2,1.05-2,2.86v7.75C74.31,76.18,74.81,77.2,76.3,77.2Z"/><path class="cls-1" d="M105.44,13.43a96.14,96.14,0,1,0,96.14,96.13A96.14,96.14,0,0,0,105.44,13.43Zm33.5,47.86,10.47,18.38h-3.54l-3.41-6H132l-3.39,6h-3.38l10.47-18.38Zm-55.29,0h3l9,13.21h.11V61.29H98.7V79.67h-3l-9-13.21h-.11V79.67H83.65ZM71.16,66.75c0-3.73,2-5.72,5.14-5.72s5.15,2,5.15,5.72v7.46c0,3.81-2,5.72-5.15,5.72S71.16,78,71.16,74.21Zm-22.1,9.72-3.2,3.2h-3.6l-3.2-3.2V73.55h3.15v3.34h3.7v-5H42.52l-3.2-3.21V64.49l3.2-3.2h3.2l3.21,3.2v2.66H45.78V64.08H42.47V69h3.39l3.2,3.2Zm.73-15.18H70.22v2.84H61.58V79.67H58.43V64.13H49.79Zm56.82,91.24-11.89,11.9H66.64l-11.9-11.9v-8.19h11.7v9.95H94.91V131.86H67.81L55.91,120V96.18H103v10.14H67.61v15.4H94.72l11.89,11.9Zm2.85-72.86h-8.35V61.29h8.09v2.79h-4.94v4.46h3.89v2.78h-3.89v5.57h5.2Zm.68-18.38h3.2l1.53,12.24h0l1.91-12.24h2.58l2,12.21h.05l1.5-12.21h3l-2.63,18.38h-3.2l-1.94-11.42h-.06l-2,11.42h-3.31Zm44.64,103.14H115V96.18h39.79ZM162,79.67H150.49V61.29h3.15v15.6H162Zm1.89,0V61.29h3.15v15.6h8.37v2.78Z"/><text class="cls-2" transform="translate(62.79 241.24)"><tspan class="cls-3">f</tspan><tspan x="8.02" y="0">eeld</tspan><tspan class="cls-4" x="54.17" y="0">.</tspan><tspan class="cls-5" x="59.28" y="0">c</tspan><tspan x="71.4" y="0">o</tspan></text></svg>