<?xml version="1.0" encoding="UTF-8"?>
<svg width="193px" height="235px" viewBox="0 0 193 235" version="1.1" xmlns="http://www.w3.org/2000/svg" xmlns:xlink="http://www.w3.org/1999/xlink">
    <!-- Generator: Sketch 55.1 (78136) - https://sketchapp.com -->
    <title>Untitled</title>
    <desc>Created with Sketch.</desc>
    <defs>
        <path d="M6.504,7.304 C5.84799672,7.304 5.3800014,7.46799836 5.1,7.796 C4.8199986,8.12400164 4.68,8.67999608 4.68,9.464 L4.68,11.192 L7.656,11.192 L7.656,12.752 L4.68,12.752 L4.68,23 L2.616,23 L2.616,12.752 L0.432,12.752 L0.432,11.192 L2.616,11.192 L2.616,9.224 C2.616,8.05599416 2.91999696,7.15600316 3.528,6.524 C4.13600304,5.89199684 5.01599424,5.576 6.168,5.576 C6.93600384,5.576 7.72799592,5.71199864 8.544,5.984 L8.136,7.568 C7.44799656,7.39199912 6.904002,7.304 6.504,7.304 Z" id="path-1"></path>
        <path d="M19.9,20.888 C19.0519958,21.7840045 18.232004,22.4159982 17.44,22.784 C16.647996,23.1520018 15.756005,23.336 14.764,23.336 C13.5799941,23.336 12.5480044,23.0800026 11.668,22.568 C10.7879956,22.0559974 10.1080024,21.3360046 9.628,20.408 C9.1479976,19.4799954 8.908,18.4000062 8.908,17.168 C8.908,15.9359938 9.13999768,14.8440048 9.604,13.892 C10.0680023,12.9399952 10.7239958,12.1960027 11.572,11.66 C12.4200042,11.1239973 13.4119943,10.856 14.548,10.856 C16.2280084,10.856 17.5359953,11.3639949 18.472,12.38 C19.408,13.3960051 19.876,14.7839912 19.876,16.544 C19.876,16.8640016 19.8600002,17.1679986 19.828,17.456 L10.972,17.456 C11.0360003,18.656006 11.3879968,19.6479961 12.028,20.432 C12.6680032,21.2160039 13.587994,21.608 14.788,21.608 C15.5240037,21.608 16.1599973,21.4640014 16.696,21.176 C17.2320027,20.8879986 17.8919961,20.3760037 18.676,19.64 L19.9,20.888 Z M14.524,12.512 C13.5639952,12.512 12.780003,12.807997 12.172,13.4 C11.563997,13.992003 11.1800008,14.8319946 11.02,15.92 L17.836,15.92 C17.7879998,14.8799948 17.4760029,14.0520031 16.9,13.436 C16.3239971,12.8199969 15.532005,12.512 14.524,12.512 Z M32.764,20.888 C31.9159958,21.7840045 31.096004,22.4159982 30.304,22.784 C29.511996,23.1520018 28.620005,23.336 27.628,23.336 C26.4439941,23.336 25.4120044,23.0800026 24.532,22.568 C23.6519956,22.0559974 22.9720024,21.3360046 22.492,20.408 C22.0119976,19.4799954 21.772,18.4000062 21.772,17.168 C21.772,15.9359938 22.0039977,14.8440048 22.468,13.892 C22.9320023,12.9399952 23.5879958,12.1960027 24.436,11.66 C25.2840042,11.1239973 26.2759943,10.856 27.412,10.856 C29.0920084,10.856 30.3999953,11.3639949 31.336,12.38 C32.272,13.3960051 32.74,14.7839912 32.74,16.544 C32.74,16.8640016 32.7240002,17.1679986 32.692,17.456 L23.836,17.456 C23.9000003,18.656006 24.2519968,19.6479961 24.892,20.432 C25.5320032,21.2160039 26.451994,21.608 27.652,21.608 C28.3880037,21.608 29.0239973,21.4640014 29.56,21.176 C30.0960027,20.8879986 30.7559961,20.3760037 31.54,19.64 L32.764,20.888 Z M27.388,12.512 C26.4279952,12.512 25.644003,12.807997 25.036,13.4 C24.427997,13.992003 24.0440008,14.8319946 23.884,15.92 L30.7,15.92 C30.6519998,14.8799948 30.3400029,14.0520031 29.764,13.436 C29.1879971,12.8199969 28.396005,12.512 27.388,12.512 Z M37.444,5.96 L37.444,23 L35.38,23 L35.38,5.96 L37.444,5.96 Z M51.244,5.96 L51.244,23 L49.3,23 L49.3,21.176 C48.8839979,21.8640034 48.3360034,22.3919982 47.656,22.76 C46.9759966,23.1280018 46.1800046,23.312 45.268,23.312 C44.259995,23.312 43.3640039,23.0520026 42.58,22.532 C41.7959961,22.0119974 41.1800022,21.2840047 40.732,20.348 C40.2839978,19.4119953 40.06,18.3280062 40.06,17.096 C40.06,15.8639938 40.2879977,14.7800047 40.744,13.844 C41.2000023,12.9079953 41.823996,12.1800026 42.616,11.66 C43.408004,11.1399974 44.307995,10.88 45.316,10.88 C47.0280086,10.88 48.3159957,11.5119937 49.18,12.776 L49.18,5.96 L51.244,5.96 Z M45.58,21.56 C46.6680054,21.56 47.5519966,21.160004 48.232,20.36 C48.9120034,19.559996 49.252,18.4720069 49.252,17.096 C49.252,15.7199931 48.9120034,14.636004 48.232,13.844 C47.5519966,13.051996 46.6680054,12.656 45.58,12.656 C44.5559949,12.656 43.7320031,13.0639959 43.108,13.88 C42.4839969,14.6960041 42.172,15.7679934 42.172,17.096 C42.172,18.4400067 42.4799969,19.5199959 43.096,20.336 C43.7120031,21.1520041 44.5399948,21.56 45.58,21.56 Z" id="path-2"></path>
        <polygon id="path-3" points="57.986 20.408 57.986 23 55.538 23 55.538 20.408"></polygon>
        <path d="M69.288,14.36 C68.6639969,13.6879966 68.0920026,13.2240013 67.572,12.968 C67.0519974,12.7119987 66.488003,12.584 65.88,12.584 C65.1119962,12.584 64.4560027,12.7919979 63.912,13.208 C63.3679973,13.6240021 62.9600014,14.1759966 62.688,14.864 C62.4159986,15.5520034 62.28,16.295996 62.28,17.096 C62.28,18.3440062 62.5959968,19.4039956 63.228,20.276 C63.8600032,21.1480044 64.7519942,21.584 65.904,21.584 C66.5440032,21.584 67.1199974,21.4440014 67.632,21.164 C68.1440026,20.8839986 68.7439966,20.3680038 69.432,19.616 L70.8,20.768 C70.0319962,21.7120047 69.2720038,22.3759981 68.52,22.76 C67.7679962,23.1440019 66.896005,23.336 65.904,23.336 C64.7519942,23.336 63.7440043,23.0800026 62.88,22.568 C62.0159957,22.0559974 61.3480024,21.3280047 60.876,20.384 C60.4039976,19.4399953 60.168,18.3440062 60.168,17.096 C60.168,15.8479938 60.4079976,14.7560047 60.888,13.82 C61.3680024,12.8839953 62.0439956,12.1560026 62.916,11.636 C63.7880044,11.1159974 64.7839944,10.856 65.904,10.856 C66.8800049,10.856 67.7319964,11.0239983 68.46,11.36 C69.1880036,11.6960017 69.9119964,12.2719959 70.632,13.088 L69.288,14.36 Z" id="path-4"></path>
        <path d="M78.144,10.856 C79.2800057,10.856 80.288,11.1199974 81.168,11.648 C82.0480044,12.1760026 82.7359975,12.9119953 83.232,13.856 C83.7280025,14.8000047 83.976,15.8799939 83.976,17.096 C83.976,18.3120061 83.7280025,19.3919953 83.232,20.336 C82.7359975,21.2800047 82.0480044,22.0159974 81.168,22.544 C80.288,23.0720026 79.2800057,23.336 78.144,23.336 C77.0079943,23.336 75.9960044,23.0720026 75.108,22.544 C74.2199956,22.0159974 73.5280025,21.2800047 73.032,20.336 C72.5359975,19.3919953 72.288,18.3120061 72.288,17.096 C72.288,15.8799939 72.5359975,14.8000047 73.032,13.856 C73.5280025,12.9119953 74.2199956,12.1760026 75.108,11.648 C75.9960044,11.1199974 77.0079943,10.856 78.144,10.856 Z M78.144,12.584 C77.0079943,12.584 76.1000034,12.9999958 75.42,13.832 C74.7399966,14.6640042 74.4,15.7519933 74.4,17.096 C74.4,18.4400067 74.7399966,19.5279958 75.42,20.36 C76.1000034,21.1920042 77.0079943,21.608 78.144,21.608 C79.2800057,21.608 80.1839966,21.1920042 80.856,20.36 C81.5280034,19.5279958 81.864,18.4400067 81.864,17.096 C81.864,15.7519933 81.5280034,14.6640042 80.856,13.832 C80.1839966,12.9999958 79.2800057,12.584 78.144,12.584 Z" id="path-5"></path>
    </defs>
    <g id="Page-1" stroke="none" stroke-width="1" fill="none" fill-rule="evenodd">
        <g id="stamp-black" fill-rule="nonzero">
            <rect id="Rectangle" fill="#111913" x="119.3" y="93.32" width="30.03" height="47.97"></rect>
            <polygon id="Path" fill="#111913" points="131.35 52.15 131.25 52.15 130.12 58.79 132.59 58.79"></polygon>
            <path d="M96.44,0.43 C57.5540898,0.43 22.4973247,23.8548413 7.61726544,59.7811249 C-7.26279379,95.7074084 0.96436954,137.059721 28.4622904,164.554782 C55.9602112,192.049842 97.3133793,200.272704 133.238115,185.388908 C169.16285,170.505112 192.584045,135.44591 192.58,96.56 C192.574478,43.4672494 149.532751,0.43 96.44,0.43 L96.44,0.43 Z M138,48.29 L141.15,48.29 L141.15,63.89 L149.53,63.89 L149.53,66.67 L138,66.67 L138,48.29 Z M133.54,48.29 L136.93,66.67 L133.86,66.67 L133,61.52 L129.79,61.52 L128.95,66.67 L125.95,66.67 L129.33,48.29 L133.54,48.29 Z M86.08,48.29 L94.17,48.29 L94.17,51.08 L89.22,51.08 L89.22,55.54 L93.11,55.54 L93.11,58.32 L89.22,58.32 L89.22,63.89 L94.42,63.89 L94.42,66.67 L86.07,66.67 L86.08,48.29 Z M68.63,48.29 L71.63,48.29 L80.63,61.5 L80.74,61.5 L80.74,48.29 L83.68,48.29 L83.68,66.67 L80.68,66.67 L71.68,53.46 L71.58,53.46 L71.58,66.67 L68.62,66.67 L68.63,48.29 Z M56.13,53.75 C56.13,50.02 58.13,48.03 61.28,48.03 C64.43,48.03 66.42,50.03 66.42,53.75 L66.42,61.21 C66.42,65.01 64.42,66.93 61.28,66.93 C58.14,66.93 56.12,65 56.12,61.21 L56.13,53.75 Z M45.44,48.29 L54.94,48.29 L54.94,51.08 L51.76,51.08 L51.76,66.67 L48.61,66.67 L48.61,51.08 L45.44,51.08 L45.44,48.29 Z M38,59 L35.4,58.45 C32.46,57.85 30.51,56.3 30.51,53.17 C30.51,50.04 33.14,47.87 37.34,47.87 C41.54,47.87 44.04,49.87 44.34,54.09 L41.13,54.09 C41.06,51.6 39.53,50.42 37.13,50.42 C35.06,50.42 33.64,51.33 33.64,52.91 C33.64,54.49 34.51,55.17 36.64,55.61 L39.35,56.19 C42.42,56.85 44.47,58.19 44.47,61.55 C44.47,64.7 42.1,67.19 37.47,67.19 C32.84,67.19 30.16,65 29.84,60.21 L33,60.21 C33.08,63.15 34.76,64.46 37.41,64.46 C39.41,64.46 41.19,63.73 41.19,61.81 C41.19,59.89 40.08,59.4 38,59 Z M65,153.91 C42.57,153.91 31.65,146.02 29.9,131.59 L42.47,131.59 C44.23,139.78 52.03,143.59 65.1,143.59 C79.43,143.59 87.72,138.23 87.72,128.28 C87.72,118.14 79.92,112.78 67.63,112.78 C56.22,112.78 48.03,116.39 43.63,124.48 L32.34,124.48 L37.11,83.23 L95.42,83.23 L95.42,93.57 L46.42,93.57 L43.69,112.88 C48.69,107.32 59.58,104 70.99,104 C88.93,104 99.85,112.29 99.85,128.28 C99.85,144.27 86.25,153.86 65,153.86 L65,153.91 Z M101.72,66.72 L95.1,48.29 L98.46,48.29 L103.77,63.6 L103.84,63.6 L109.84,48.29 L113.28,48.29 L119.43,63.62 L119.53,63.62 L124.83,48.29 L128,48.29 L121.38,66.67 L117.45,66.67 L111.51,51.89 L111.43,51.89 L105.68,66.67 L101.72,66.72 Z M149.14,151.48 L119.5,151.48 L107.6,139.58 L107.6,95.07 L119.5,83.17 L149.14,83.17 L161.04,95.07 L161.04,139.53 L149.14,151.48 Z M162.93,66.72 L151.41,66.72 L151.41,48.29 L154.56,48.29 L154.56,63.89 L162.93,63.89 L162.93,66.72 Z" id="Shape" fill="#111913"></path>
            <path d="M61.27,64.2 C62.74,64.2 63.27,63.2 63.27,61.37 L63.27,53.62 C63.27,51.78 62.75,50.76 61.27,50.76 C59.79,50.76 59.27,51.81 59.27,53.62 L59.27,61.37 C59.27,63.18 59.77,64.2 61.27,64.2 Z" id="Path" fill="#111913"></path>
            <g id="Group" transform="translate(53.790000, 205.240000)">
                <g id="f">
                    <use fill="#000000" xlink:href="#path-1"></use>
                    <use fill="#111913" xlink:href="#path-1"></use>
                </g>
                <g id="eeld">
                    <use fill="#000000" xlink:href="#path-2"></use>
                    <use fill="#111913" xlink:href="#path-2"></use>
                </g>
                <g id=".">
                    <use fill="#000000" xlink:href="#path-3"></use>
                    <use fill="#111913" xlink:href="#path-3"></use>
                </g>
                <g id="c">
                    <use fill="#000000" xlink:href="#path-4"></use>
                    <use fill="#111913" xlink:href="#path-4"></use>
                </g>
                <g id="o">
                    <use fill="#000000" xlink:href="#path-5"></use>
                    <use fill="#111913" xlink:href="#path-5"></use>
                </g>
            </g>
        </g>
    </g>
</svg>